PathFileType	4	(X/Y/Z)	C:\Users\Willi\Documents\UniDataLokal\DATA_Hans_PhD\TD05\3DGAIT_C_W31\marker_experimental.trc
DataRate	CameraRate	NumFrames	NumMarkers	Units	OrigDataRate	OrigDataStartFrame	OrigNumFrames
100.000000	100.000000	4	85	mm	100.000000	125	200
Frame#	Time	RBAK			C7			CLAV			T10			STRN			RASI			RPSI			LPSI			LASI			LPELV			RPELV			RTHI1			RTHI2			RTHI3			RTHI			RKNE			RPAT			RLKNEL			RLKNEM			RLPAT			RTIB1			RTIB2			RTIB3			RTIB			RANK			RHEEL			RTOE			RM5			LTHI1			LTHI2			LTHI3			LTHI			LKNE			LPAT			LLKNE			LLKNEM			LLPAT			LTIB1			LTIB2			LTIB3			LTIB			LANK			LHEEL			LTOE			LM5			*45			*46			*47			*48			*49			*50			*51			*52			*53			*54			*55			*56			*57			*58			*59			*60			*61			*62			*63			*64			*65			*66			*67			*68			*69			*70			*71			*72			*73			*74			*75			*76			*77			*78			*79			*80			*81			*82			*83			*84			
		X1	Y1	Z1	X2	Y2	Z2	X3	Y3	Z3	X4	Y4	Z4	X5	Y5	Z5	X6	Y6	Z6	X7	Y7	Z7	X8	Y8	Z8	X9	Y9	Z9	X10	Y10	Z10	X11	Y11	Z11	X12	Y12	Z12	X13	Y13	Z13	X14	Y14	Z14	X15	Y15	Z15	X16	Y16	Z16	X17	Y17	Z17	X18	Y18	Z18	X19	Y19	Z19	X20	Y20	Z20	X21	Y21	Z21	X22	Y22	Z22	X23	Y23	Z23	X24	Y24	Z24	X25	Y25	Z25	X26	Y26	Z26	X27	Y27	Z27	X28	Y28	Z28	X29	Y29	Z29	X30	Y30	Z30	X31	Y31	Z31	X32	Y32	Z32	X33	Y33	Z33	X34	Y34	Z34	X35	Y35	Z35	X36	Y36	Z36	X37	Y37	Z37	X38	Y38	Z38	X39	Y39	Z39	X40	Y40	Z40	X41	Y41	Z41	X42	Y42	Z42	X43	Y43	Z43	X44	Y44	Z44	X45	Y45	Z45	X46	Y46	Z46	X47	Y47	Z47	X48	Y48	Z48	X49	Y49	Z49	X50	Y50	Z50	X51	Y51	Z51	X52	Y52	Z52	X53	Y53	Z53	X54	Y54	Z54	X55	Y55	Z55	X56	Y56	Z56	X57	Y57	Z57	X58	Y58	Z58	X59	Y59	Z59	X60	Y60	Z60	X61	Y61	Z61	X62	Y62	Z62	X63	Y63	Z63	X64	Y64	Z64	X65	Y65	Z65	X66	Y66	Z66	X67	Y67	Z67	X68	Y68	Z68	X69	Y69	Z69	X70	Y70	Z70	X71	Y71	Z71	X72	Y72	Z72	X73	Y73	Z73	X74	Y74	Z74	X75	Y75	Z75	X76	Y76	Z76	X77	Y77	Z77	X78	Y78	Z78	X79	Y79	Z79	X80	Y80	Z80	X81	Y81	Z81	X82	Y82	Z82	X83	Y83	Z83	X84	Y84	Z84	X85	Y85	Z85	

126	1.25	294.9212036132812	1268.233154296875	-131.2693328857421	350.7378234863281	1362.367919921875	-279.1163940429687	450.3460388183594	1265.36962890625	-278.8591003417968	294.6066284179688	1041.762817382812	-294.5930480957031	501.6356811523438	1032.108154296875	-282.4503479003905	475.6819763183594	873.0004272460938	-164.7315826416015	291.3056030273438	898.9364013671875	-224.0967559814453	292.0531616210938	900.5478515625	-334.8392028808593	478.4768981933594	880.230224609375	-405.7965698242186	396.0887451171875	920.1896362304688	-450.2915344238281	386.7718200683593	923.1688842773438	-120.6251831054687	491.9873046874999	584.018310546875	-104.490623474121	546.9983520507812	553.2804565429688	-140.5233612060546	522.6459350585938	489.5130310058594	-127.6288452148437	464.6610107421874	489.5438232421876	-91.66721343994132	497.155029296875	418.7637023925782	-137.8468933105468	578.8740234375	435.7128295898438	-175.6495513916014	500.8584594726562	377.6003723144532	-141.2533569335937	538.265380859375	382.6138610839844	-252.5131378173827	570.6092529296875	377.7021789550782	-163.5706787109374	602.06982421875	266.1092834472657	-142.2318420410155	578.8980102539062	204.938949584961	-124.481590270996	638.7756958007812	181.6766662597657	-146.3585205078124	561.0064086914062	117.9236907958985	-121.4897460937499	628.9725952148438	71.72161865234379	-147.9322967529296	637.5450439453125	31.77330207824711	-208.4269104003905	766.08349609375	84.28088378906254	-92.8195648193358	736.448486328125	44.67056274414067	-70.42272949218736	411.6277770996094	589.923095703125	-432.8099365234374	430.5618591308594	539.4188232421875	-398.1258850097656	379.2076416015625	499.1798400878906	-416.7644042968749	339.5731201171875	510.6346740722656	-460.1837768554687	325.5225219726563	444.1295776367188	-411.5829772949218	382.0074768066407	412.3153686523438	-353.0675354003906	305.0306091308594	398.2573852539062	-407.0324707031249	298.0202941894532	403.9002685546875	-289.4021606445312	339.1326599121094	362.9489135742188	-360.1002197265624	298.7625122070313	276.8106689453125	-368.2598876953124	241.4429931640626	249.4465789794922	-403.9118347167968	253.2465209960938	186.7344818115235	-363.9451904296874	156.9879608154298	193.2226867675781	-412.2249755859374	156.8305358886719	88.5491180419922	-358.9586486816406	122.1235275268555	53.36553192138673	-302.9869689941406	282.5232238769532	32.97981262207033	-397.3985900878906	234.3350219726563	22.69199752807619	-423.5000915527343	nan	nan	nan	nan	nan	nan	nan	nan	nan	nan	nan	nan	nan	nan	nan	nan	nan	nan	nan	nan	nan	nan	nan	nan	nan	nan	nan	nan	nan	nan	nan	nan	nan	nan	nan	nan	nan	nan	nan	nan	nan	nan	nan	nan	nan	nan	nan	nan	nan	nan	nan	nan	nan	nan	nan	nan	nan	nan	nan	nan	nan	nan	nan	nan	nan	nan	nan	nan	nan	nan	nan	nan	nan	nan	nan	nan	nan	nan	nan	nan	nan	nan	nan	nan	nan	nan	nan	nan	nan	nan	nan	nan	nan	nan	nan	nan	nan	nan	nan	nan	nan	nan	nan	nan	nan	nan	nan	nan	nan	nan	nan	nan	nan	nan	nan	nan	nan	nan	nan	nan	
127	1.26	304.3562927246093	1267.671630859375	-129.4486236572265	360.0671081542969	1362.185913085938	-277.2219543457031	459.8591613769531	1265.160278320312	-277.0630493164062	304.6343383789062	1041.355102539062	-292.8448791503906	511.6929321289062	1031.9443359375	-280.9288940429686	486.400634765625	872.7600708007812	-163.2647857666015	301.7138671875	898.933837890625	-221.9806823730468	302.1056823730469	900.2925415039062	-332.6984252929687	488.3065490722656	879.5422973632812	-404.353302001953	405.5739135742188	919.5272216796875	-448.6012268066406	397.6719665527343	923.1015625	-118.7181091308593	501.2295837402343	583.6349487304688	-103.294708251953	555.4490966796875	551.9087524414062	-139.7808837890624	530.203369140625	488.6315002441407	-126.4473419189452	473.3023071289062	489.7439575195313	-89.53325653076163	503.4670715332031	418.0525817871094	-135.7525787353515	584.8566284179688	433.6946716308594	-174.6811981201171	506.4070434570312	376.7703857421876	-139.0230865478515	542.752685546875	380.9083251953126	-250.6860809326171	575.8470458984375	376.1015625000001	-162.1624450683593	606.6253051757812	264.5380554199219	-140.4725341796874	583.0601806640625	203.5134582519532	-122.5465087890624	642.5281372070312	179.7181396484375	-144.7983093261718	564.2160034179688	116.3948287963867	-119.2818374633788	631.34912109375	69.70108032226567	-146.5156402587889	638.8688354492188	30.57599258422855	-207.4200286865233	768.727294921875	78.29843902587895	-92.34431457519517	738.570556640625	39.27132034301762	-70.34130096435533	419.6558532714844	589.5497436523438	-431.7702331542968	438.4671325683594	538.7955932617188	-397.3738708496093	386.7406005859375	498.9132385253906	-415.9190979003906	346.9920349121094	510.7511596679688	-459.1843872070312	332.7065429687501	444.198486328125	-410.7478942871093	389.1509704589844	411.6846313476562	-352.4613952636718	311.7131652832032	398.5045166015625	-406.3379821777343	305.0151672363282	403.9230041503906	-288.7221679687499	345.2790832519532	362.5975952148438	-359.4309997558593	303.3242492675782	277.0374450683594	-367.8647155761718	245.5727081298829	250.8030395507813	-403.6811828613281	256.2720031738282	187.7725219726563	-363.9239501953124	160.1895446777345	196.1293487548828	-412.3393249511718	158.1681671142579	91.29628753662111	-359.3790283203124	122.7517242431641	56.81194305419923	-303.5613403320312	282.6429138183594	33.00812149047853	-397.4833068847656	234.7083587646485	23.42958068847658	-423.4766845703124	nan	nan	nan	nan	nan	nan	nan	nan	nan	nan	nan	nan	nan	nan	nan	nan	nan	nan	nan	nan	nan	nan	nan	nan	nan	nan	nan	nan	nan	nan	nan	nan	nan	nan	nan	nan	nan	nan	nan	nan	nan	nan	nan	nan	nan	nan	nan	nan	nan	nan	nan	nan	nan	nan	nan	nan	nan	nan	nan	nan	nan	nan	nan	nan	nan	nan	nan	nan	nan	nan	nan	nan	nan	nan	nan	nan	nan	nan	nan	nan	nan	nan	nan	nan	nan	nan	nan	nan	nan	nan	nan	nan	nan	nan	nan	nan	nan	nan	nan	nan	nan	nan	nan	nan	nan	nan	nan	nan	nan	nan	nan	nan	nan	nan	nan	nan	nan	nan	nan	nan	
128	1.27	313.8576354980468	1267.308471679688	-127.5207519531249	369.4184875488281	1362.190551757812	-275.2281188964843	469.3977355957031	1265.16455078125	-275.1937255859374	314.7124328613281	1041.118286132812	-291.0115966796874	521.8098144531249	1032.025024414062	-279.3427429199218	497.2115783691406	872.8340454101562	-161.6807098388671	312.2269287109375	899.2048950195312	-219.8220825195312	312.3233642578125	900.21240234375	-330.5472412109374	498.2924194335938	879.0293579101562	-402.7433166503905	415.3307495117188	919.00927734375	-446.8223876953124	408.6952819824218	923.3919067382812	-116.7256927490234	510.3758850097656	583.5860595703125	-101.9039916992187	563.787353515625	550.8198852539062	-138.7828674316405	537.5812377929688	488.0705566406251	-125.011978149414	481.7422790527343	490.3362731933594	-87.1764602661132	509.4599914550781	417.6161193847657	-133.4031524658202	590.512451171875	431.8790588378907	-173.2986602783202	511.6156921386719	376.1756896972657	-136.5451202392577	546.9683837890625	379.5331420898438	-248.5746307373046	580.7433471679688	374.6769714355469	-160.4452209472655	610.6992797851562	263.0422363281251	-138.5223236083983	586.6495971679688	202.1718444824219	-120.5067977905272	645.7122192382812	177.8203887939453	-143.0738067626952	566.8238525390625	115.0039825439453	-117.166275024414	633.0579223632812	67.78068542480473	-145.1052703857421	639.7015380859375	29.80536079406742	-206.5521697998046	770.7496337890625	71.93341064453129	-91.18569183349595	739.7501220703125	33.52497863769536	-69.92520141601548	428.0343017578125	589.317138671875	-430.5950927734374	446.7279052734375	538.3173217773438	-396.4750366210937	394.6661987304688	498.7657775878906	-414.9598388671874	354.7799682617188	511.0016174316406	-458.0656433105468	340.2951049804688	444.376708984375	-409.8352966308593	396.7481384277344	411.1559448242188	-351.7539367675781	318.7943725585938	398.8639221191406	-405.6037597656249	312.3366088867188	404.078369140625	-287.9888305664062	351.8094177246094	362.3463745117188	-358.7303771972656	308.1954040527344	277.4230041503906	-367.4702453613281	250.0037078857422	252.3826446533203	-403.4356079101562	259.5416870117188	189.0457458496094	-363.9155273437499	163.6534881591798	199.3372955322266	-412.4627075195312	159.6950225830079	94.37514495849611	-359.8402099609374	123.5403900146485	60.67778396606446	-304.1879272460938	282.7785949707032	33.04635238647462	-397.5976257324218	235.131561279297	24.28942108154298	-423.4329223632812	nan	nan	nan	nan	nan	nan	nan	nan	nan	nan	nan	nan	nan	nan	nan	nan	nan	nan	nan	nan	nan	nan	nan	nan	nan	nan	nan	nan	nan	nan	nan	nan	nan	nan	nan	nan	nan	nan	nan	nan	nan	nan	nan	nan	nan	nan	nan	nan	nan	nan	nan	nan	nan	nan	nan	nan	nan	nan	nan	nan	nan	nan	nan	nan	nan	nan	nan	nan	nan	nan	nan	nan	nan	nan	nan	nan	nan	nan	nan	nan	nan	nan	nan	nan	nan	nan	nan	nan	nan	nan	nan	nan	nan	nan	nan	nan	nan	nan	nan	nan	nan	nan	nan	nan	nan	nan	nan	nan	nan	nan	nan	nan	nan	nan	nan	nan	nan	nan	nan	nan	
129	1.28	323.4255371093749	1267.15185546875	-125.493911743164	378.7918090820312	1362.383422851562	-273.1435852050781	478.9599914550781	1265.384521484375	-273.2586669921874	324.8252258300781	1041.058837890625	-289.1015930175781	531.9673461914061	1032.349609375	-277.6969604492186	508.0807800292969	873.2384033203125	-159.9727783203124	322.8184509277344	899.7593383789062	-217.6424255371093	322.6925048828125	900.3115234375	-328.4128723144531	508.4251098632812	878.697509765625	-400.955108642578	425.3838500976562	918.644287109375	-444.9631652832031	419.7959594726562	924.0661010742188	-114.6668701171874	519.3143920898438	583.8534545898438	-100.2893295288085	571.9138793945312	550.0138549804688	-137.4852294921874	544.69189453125	487.8215637207032	-123.2992782592772	489.8180541992187	491.2893676757813	-84.62979125976554	515.1082153320312	417.4617614746094	-130.8290405273437	595.8028564453125	430.3368225097657	-171.5317535400389	516.5119018554688	375.8377685546876	-133.8507995605468	550.8753662109375	378.5187072753907	-246.2246093749999	585.3203735351562	373.4912719726563	-158.4636840820311	614.3915405273438	261.7052612304688	-136.425567626953	589.8280639648438	201.0027313232422	-118.3591003417968	648.4840087890625	176.1029510498047	-141.2156982421874	569.059814453125	113.8500213623047	-115.0551223754882	634.3460083007812	66.08472442626957	-143.6542510986327	640.2949829101562	29.49943161010746	-205.7388763427733	772.4431762695312	65.64649963378911	-89.43301391601548	740.319091796875	27.88324356079106	-69.12558746337876	436.8038330078125	589.2214965820312	-429.2717590332031	455.3912658691406	537.9869995117188	-395.4092102050781	403.0436401367188	498.7274780273438	-413.8728637695312	362.9871520996094	511.3711547851562	-456.8127746582031	348.3503112792969	444.6489562988281	-408.8372802734374	404.8802795410157	410.70947265625	-350.9376220703124	326.3341369628907	399.3222351074219	-404.8252563476562	320.0456542968751	404.3568420410156	-287.1919555664062	358.7936706542969	362.1788024902344	-358.0045471191406	313.4394836425782	277.9611511230469	-367.0756835937499	254.7941436767579	254.1873626708985	-403.1573181152343	263.1127319335938	190.5567016601563	-363.9045410156249	167.4248199462891	202.859130859375	-412.5488891601562	161.4638824462891	97.8025360107422	-360.3002319335937	124.5545730590821	64.99343109130861	-304.8122253417969	282.9555664062501	33.1119956970215	-397.7288208007812	235.6026916503907	25.27684783935548	-423.3607177734374	nan	nan	nan	nan	nan	nan	nan	nan	nan	nan	nan	nan	nan	nan	nan	nan	nan	nan	nan	nan	nan	nan	nan	nan	nan	nan	nan	nan	nan	nan	nan	nan	nan	nan	nan	nan	nan	nan	nan	nan	nan	nan	nan	nan	nan	nan	nan	nan	nan	nan	nan	nan	nan	nan	nan	nan	nan	nan	nan	nan	nan	nan	nan	nan	nan	nan	nan	nan	nan	nan	nan	nan	nan	nan	nan	nan	nan	nan	nan	nan	nan	nan	nan	nan	nan	nan	nan	nan	nan	nan	nan	nan	nan	nan	nan	nan	nan	nan	nan	nan	nan	nan	nan	nan	nan	nan	nan	nan	nan	nan	nan	nan	nan	nan	nan	nan	nan	nan	nan	nan	
